<svg width="183" height="61" viewBox="0 0 183 61" fill="none" xmlns="http://www.w3.org/2000/svg">
<path fill-rule="evenodd" clip-rule="evenodd" d="M17.4286 15.6855H0V33.1141C0 42.7394 7.80296 50.5427 17.4286 50.5427C27.0539 50.5427 34.8573 42.7394 34.8573 33.1141C34.8573 23.4884 27.0539 15.6855 17.4286 15.6855Z" fill="#003531"/>
<path fill-rule="evenodd" clip-rule="evenodd" d="M6.10024 0C2.73131 0 0.000244141 2.73106 0.000244141 6.1C0.000244141 9.46907 2.73131 12.2 6.10024 12.2H12.2002V6.1C12.2002 2.73106 9.46931 0 6.10024 0Z" fill="#F78D28"/>
<path fill-rule="evenodd" clip-rule="evenodd" d="M178.691 21.8394H178.996C179.43 21.8394 179.699 21.8229 179.803 21.7895C179.908 21.756 179.991 21.6975 180.051 21.614C180.112 21.5306 180.142 21.4362 180.142 21.3298C180.142 21.2264 180.113 21.1349 180.054 21.0545C179.995 20.974 179.91 20.9164 179.801 20.8817C179.692 20.8465 179.423 20.8291 178.996 20.8291H178.691V21.8394ZM177.94 23.9418V20.242H178.691C179.394 20.242 179.789 20.2454 179.874 20.2513C180.123 20.2725 180.316 20.3216 180.454 20.3992C180.592 20.4766 180.708 20.5948 180.8 20.7541C180.892 20.9134 180.939 21.09 180.939 21.2841C180.939 21.5514 180.852 21.7797 180.677 21.9691C180.503 22.1588 180.258 22.2761 179.942 22.3219C180.054 22.3643 180.141 22.4104 180.201 22.4605C180.262 22.5104 180.346 22.6053 180.452 22.7451C180.479 22.7815 180.57 22.9315 180.725 23.1954L181.162 23.9418H180.233L179.924 23.3411C179.715 22.9374 179.542 22.6837 179.405 22.5791C179.269 22.4744 179.096 22.4219 178.886 22.4219H178.691V23.9418H177.94ZM179.519 19.2727C179.04 19.2727 178.58 19.3927 178.14 19.6324C177.7 19.8722 177.354 20.2166 177.101 20.6652C176.847 21.1142 176.721 21.5844 176.721 22.0762C176.721 22.5647 176.844 23.0302 177.091 23.4729C177.339 23.9159 177.683 24.2616 178.126 24.5107C178.57 24.7594 179.033 24.8839 179.519 24.8839C180.007 24.8839 180.472 24.7594 180.914 24.5107C181.355 24.2616 181.7 23.9159 181.949 23.4729C182.198 23.0302 182.322 22.5647 182.322 22.0762C182.322 21.5844 182.195 21.1142 181.942 20.6652C181.689 20.2166 181.341 19.8722 180.9 19.6324C180.458 19.3927 179.998 19.2727 179.519 19.2727ZM179.514 18.5903C180.112 18.5903 180.686 18.7398 181.235 19.0385C181.784 19.3376 182.215 19.7659 182.529 20.3241C182.843 20.8825 183 21.4662 183 22.0762C183 22.6828 182.846 23.2615 182.538 23.8122C182.23 24.3629 181.801 24.792 181.251 25.0999C180.7 25.4079 180.121 25.5617 179.514 25.5617C178.908 25.5617 178.329 25.4079 177.778 25.0999C177.228 24.792 176.799 24.3629 176.491 23.8122C176.182 23.2615 176.029 22.6828 176.029 22.0762C176.029 21.4662 176.186 20.8825 176.5 20.3241C176.814 19.7659 177.245 19.3376 177.794 19.0385C178.343 18.7398 178.917 18.5903 179.514 18.5903Z" fill="#003531"/>
<path fill-rule="evenodd" clip-rule="evenodd" d="M107.656 27.3095H105.217V50.5425H110.56V30.2134C110.56 28.6095 109.26 27.3095 107.656 27.3095ZM117.101 28.1007C116.548 28.6256 116.267 29.7571 116.267 31.485V46.3618C116.267 48.0541 116.53 49.1762 117.047 49.719C117.572 50.2714 118.488 50.5425 119.793 50.5425H131.985V48.5337H124.144C122.975 48.5337 122.232 48.407 121.914 48.1444C121.597 47.891 121.434 47.4116 121.434 46.7057V39.3036H129.864V37.0233H121.434V31.1686C121.434 30.4628 121.588 29.9739 121.896 29.7118C122.213 29.4491 122.839 29.3136 123.772 29.3136H131.985V27.3044H120.609C118.832 27.3044 117.654 27.567 117.101 28.1007ZM164.197 29.7118C164.514 29.4491 165.14 29.3136 166.074 29.3136H174.286V27.3044H162.91C161.133 27.3044 159.955 27.567 159.402 28.1007C158.849 28.6256 158.568 29.7571 158.568 31.485V46.3618C158.568 48.0541 158.831 49.1762 159.348 49.719C159.874 50.2714 160.789 50.5425 162.094 50.5425H174.286V48.5337H166.445C165.276 48.5337 164.533 48.407 164.215 48.1444C163.898 47.891 163.735 47.4116 163.735 46.7057V39.3036H172.165V37.0233H163.735V31.1686C163.735 30.4628 163.889 29.9739 164.197 29.7118ZM97.5376 48.194C97.2254 47.936 97.0652 47.4645 97.0652 46.7706V15.6855H91.9853V46.4326C91.9853 48.0961 92.2437 49.1992 92.7516 49.7329C93.2689 50.2756 94.1686 50.5425 95.4517 50.5425H101.022V48.5676H99.7386C98.589 48.5676 97.8493 48.443 97.5376 48.194ZM147.855 46.8054C147.801 46.968 147.728 47.0951 147.628 47.1764C147.538 47.2671 147.411 47.3213 147.275 47.3395C147.148 47.3395 147.03 47.2849 146.912 47.1764C146.804 47.0769 146.713 46.9408 146.659 46.7783L140.74 27.3044H135.455L141.002 45.3756C141.555 47.3031 142.181 48.6425 142.888 49.4025C143.604 50.1625 144.528 50.5425 145.68 50.5425C146.831 50.5425 147.755 50.1625 148.453 49.3936C149.151 48.6244 149.786 47.2489 150.357 45.2761L155.904 27.3044H153.729L147.855 46.8054ZM73.1079 28.1007C72.5556 28.6256 72.2742 29.7571 72.2742 31.485V46.3618C72.2742 48.0541 72.5373 49.1762 73.0537 49.719C73.5794 50.2714 74.4952 50.5425 75.8004 50.5425H87.9919V48.5337H80.1513C78.9822 48.5337 78.2387 48.407 77.9214 48.1444C77.6041 47.891 77.4411 47.4116 77.4411 46.7057V39.3036H85.8709V37.0233H77.4411V31.1686C77.4411 30.4628 77.5953 29.9739 77.9032 29.7118C78.2205 29.4491 78.8461 29.3136 79.7794 29.3136H87.9919V27.3044H76.6163C74.8397 27.3044 73.6611 27.567 73.1079 28.1007ZM60.2183 46.699C58.9526 47.767 56.9298 48.3007 54.167 48.3007H50.041V33.3544H53.1512C56.1724 33.3544 58.4272 34.0301 59.9065 35.3916C61.3857 36.7438 62.1254 38.8258 62.1254 41.6191C62.1254 43.9324 61.4925 45.6226 60.2183 46.699ZM50.041 17.9273H52.7056C55.5395 17.9273 57.6427 18.461 59.0064 19.5285C60.37 20.5965 61.0562 22.2511 61.0562 24.4933C61.0562 26.8241 60.4411 28.5143 59.2024 29.5733C57.9638 30.6319 55.9852 31.1656 53.2491 31.1656H50.041V17.9273ZM61.163 32.0552C63.1327 31.5482 64.6298 30.6585 65.6634 29.3775C66.6881 28.1051 67.2049 26.4949 67.2049 24.5466C67.2049 22.9273 66.8042 21.4505 65.9929 20.1072C65.1821 18.7547 64.068 17.7138 62.66 16.9665C61.8759 16.5307 60.7618 16.2104 59.327 15.9969C57.8923 15.7923 56.0745 15.6855 53.8824 15.6855H43.5712V47.6378C43.5712 49.2419 44.8717 50.5425 46.4759 50.5425H55.914C60.1649 50.5425 63.3196 49.7773 65.3605 48.2473C67.4099 46.7168 68.4351 44.3683 68.4351 41.2099C68.4351 38.8614 67.8111 36.9038 66.5635 35.3382C65.3156 33.7721 63.5157 32.6784 61.163 32.0552Z" fill="#003531"/>
<path fill-rule="evenodd" clip-rule="evenodd" d="M173.551 58.9384C173.493 59.2506 173.397 59.5065 173.265 59.7065C173.099 59.9555 172.885 60.1241 172.625 60.2114C172.479 60.2588 172.292 60.2826 172.065 60.2826H170.869V56.4823H172.059C172.6 56.4823 172.993 56.6523 173.236 56.9906C173.48 57.3305 173.602 57.8066 173.602 58.4191C173.602 58.5792 173.585 58.7521 173.551 58.9384ZM173.784 56.6307C173.409 56.1477 172.881 55.9062 172.201 55.9062H170.196V60.8553H172.193C173.043 60.8553 173.641 60.48 173.99 59.7301C174.186 59.3053 174.286 58.8308 174.286 58.3051C174.286 57.6239 174.118 57.0665 173.784 56.6307ZM163.967 58.5881H166.699V58.0149H163.967V56.5128H166.922V55.9062H163.314V60.8553H166.972V60.2656H163.967V58.5881ZM156.222 56.4959H157.89V60.8553H158.57V56.4959H160.238V55.9062H156.222V56.4959ZM152.473 60.8553H153.15V55.9062H152.473V60.8553ZM146.557 60.0902L145.136 55.9062H144.176V60.8553H144.815V57.9341C144.815 57.8175 144.813 57.635 144.807 57.3868C144.802 57.1385 144.799 56.9538 144.799 56.8326V56.681L146.22 60.8553H146.884L148.296 56.681C148.296 56.9483 148.293 57.1986 148.289 57.4325C148.284 57.666 148.282 57.8332 148.282 57.9341V60.8553H148.919V55.9062H147.969L146.557 60.0902ZM139.992 60.8553H140.669V55.9062H139.992V60.8553ZM134.347 55.9062H133.676V60.8553H136.853V60.2656H134.347V55.9062ZM123.802 55.9062H123.131V60.8553H126.308V60.2656H123.802V55.9062ZM117.09 58.827L117.889 56.6404L118.64 58.827H117.09ZM117.538 55.9062L115.675 60.8553H116.363L116.898 59.3726H118.856L119.358 60.8553H120.092L118.297 55.9062H117.538ZM111.987 59.9153L109.488 55.9062H108.695V60.8553H109.336V56.8496L111.872 60.8553H112.624V55.9062H111.987V59.9153ZM104.356 59.7653C104.092 60.1889 103.665 60.4003 103.074 60.4003C102.452 60.4003 102.002 60.2122 101.725 59.836C101.447 59.46 101.308 58.9977 101.308 58.4496C101.308 57.7646 101.47 57.2465 101.794 56.8949C102.117 56.5437 102.535 56.3679 103.047 56.3679C103.575 56.3679 103.991 56.545 104.295 56.9C104.599 57.2551 104.752 57.7235 104.752 58.3051C104.752 58.8555 104.62 59.3421 104.356 59.7653ZM103.007 55.7715C102.171 55.7715 101.54 56.077 101.113 56.6882C100.781 57.1644 100.615 57.7371 100.615 58.406C100.615 59.1469 100.809 59.7602 101.197 60.2457C101.633 60.7485 102.232 61.0002 102.993 61.0002C103.808 61.0002 104.436 60.7125 104.876 60.1377C105.251 59.648 105.439 59.0338 105.439 58.2946C105.439 57.6121 105.275 57.0516 104.947 56.6137C104.527 56.0523 103.88 55.7715 103.007 55.7715ZM96.6559 60.8553H97.3333V55.9062H96.6559V60.8553ZM89.5223 56.4959H91.1904V60.8553H91.8708V56.4959H93.5381V55.9062H89.5223V56.4959ZM84.4741 58.827L85.2726 56.6404L86.0237 58.827H84.4741ZM84.9223 55.9062L83.0593 60.8553H83.7464L84.2822 59.3726H86.2393L86.7417 60.8553H87.4758L85.6801 55.9062H84.9223ZM79.3709 59.9153L76.8712 55.9062H76.0794V60.8553H76.7195V56.8496L79.2561 60.8553H80.0075V55.9062H79.3709V59.9153ZM71.7095 57.9849C71.5265 58.1107 71.2778 58.1734 70.9634 58.1734H69.4139V56.4823H71.0512C71.2803 56.4823 71.4633 56.5159 71.6002 56.5832C71.8564 56.7115 71.9843 56.9518 71.9843 57.3045C71.9843 57.6325 71.8928 57.8591 71.7095 57.9849ZM72.638 60.4405C72.613 60.349 72.5973 60.2084 72.5906 60.0195L72.5673 59.3561C72.5558 59.069 72.5016 58.8609 72.4038 58.7325C72.3063 58.6046 72.1606 58.5012 71.9674 58.423C72.1877 58.3082 72.3588 58.1568 72.4812 57.968C72.6037 57.7794 72.6647 57.5371 72.6647 57.2407C72.6647 56.6721 72.4321 56.2824 71.9674 56.0714C71.7226 55.9613 71.4117 55.9062 71.0342 55.9062H68.7433V60.8553H69.4139V58.7325H70.9398C71.2138 58.7325 71.415 58.763 71.5429 58.8236C71.7675 58.9338 71.8878 59.1502 71.9034 59.4739L71.9437 60.2995C71.953 60.4926 71.964 60.6227 71.9776 60.69C71.9912 60.7574 72.0089 60.8125 72.0314 60.8553H72.8536V60.7443C72.7503 60.6994 72.6783 60.5982 72.638 60.4405ZM62.4887 58.5881H65.221V58.0149H62.4887V56.5128H65.4434V55.9062H61.835V60.8553H65.4942V60.2656H62.4887V58.5881ZM54.7443 56.4959H56.412V60.8553H57.0923V56.4959H58.7601V55.9062H54.7443V56.4959ZM51.0524 59.9153L48.5528 55.9062H47.761V60.8553H48.4011V56.8496L50.9381 60.8553H51.6891V55.9062H51.0524V59.9153ZM43.5715 60.8553H44.2484V55.9062H43.5715V60.8553Z" fill="#003531"/>
<path fill-rule="evenodd" clip-rule="evenodd" d="M107.772 18.7065C106.232 18.7065 104.983 19.9549 104.983 21.4951C104.983 23.0354 106.232 24.2837 107.772 24.2837H110.56V21.4951C110.56 19.9549 109.312 18.7065 107.772 18.7065Z" fill="#F78D28"/>
</svg>
