<?xml version="1.0" encoding="UTF-8"?>
<!DOCTYPE svg PUBLIC "-//W3C//DTD SVG 1.1//EN" "http://www.w3.org/Graphics/SVG/1.1/DTD/svg11.dtd">
<!-- Creator: CorelDRAW (Evaluation Version) -->
<svg xmlns="http://www.w3.org/2000/svg" xml:space="preserve" width="73.9209mm" height="27.5166mm" version="1.1" shape-rendering="geometricPrecision" text-rendering="geometricPrecision" image-rendering="optimizeQuality" fill-rule="evenodd" clip-rule="evenodd"
viewBox="0 0 6986 2600"
 xmlns:xlink="http://www.w3.org/1999/xlink"
 xmlns:xodm="http://www.corel.com/coreldraw/odm/2003">
 <defs>
    <linearGradient id="id0" gradientUnits="userSpaceOnUse" x1="1050" y1="-50" x2="1050" y2="2675">
     <stop offset="0" stop-opacity="1" stop-color="#2B45AA"/>
     <stop offset="0.811765" stop-opacity="1" stop-color="#151745"/>
     <stop offset="1" stop-opacity="1" stop-color="#151745"/>
    </linearGradient>
    <linearGradient id="id1" gradientUnits="userSpaceOnUse" x1="922" y1="623" x2="922" y2="2118">
     <stop offset="0" stop-opacity="1" stop-color="#83A0F2"/>
     <stop offset="0.529412" stop-opacity="1" stop-color="#1F2B80"/>
     <stop offset="1" stop-opacity="1" stop-color="#1F2B80"/>
    </linearGradient>
    <linearGradient id="id2" gradientUnits="userSpaceOnUse" x1="225" y1="2150" x2="225" y2="2600">
     <stop offset="0" stop-opacity="1" stop-color="#2563EB"/>
     <stop offset="1" stop-opacity="1" stop-color="#06B6D4"/>
    </linearGradient>
    <linearGradient id="id3" gradientUnits="userSpaceOnUse" x1="225" y1="0" x2="225" y2="450">
     <stop offset="0" stop-opacity="1" stop-color="#2563EB"/>
     <stop offset="1" stop-opacity="1" stop-color="#06B6D4"/>
    </linearGradient>
    <linearGradient id="id4" gradientUnits="userSpaceOnUse" x1="775" y1="1700" x2="600" y2="2000">
     <stop offset="0" stop-opacity="1" stop-color="#2563EB"/>
     <stop offset="0.231373" stop-opacity="1" stop-color="#2563EB"/>
     <stop offset="1" stop-opacity="1" stop-color="#06B6D4"/>
    </linearGradient>
    <linearGradient id="id5" gradientUnits="userSpaceOnUse" x1="675" y1="650" x2="675" y2="975">
     <stop offset="0" stop-opacity="1" stop-color="#2563EB"/>
     <stop offset="1" stop-opacity="1" stop-color="#06B6D4"/>
    </linearGradient>
 </defs>
 <g id="Layer_x0020_1">
  <metadata id="CorelCorpID_0Corel-Layer"/>
  <g id="_2269364091040">
   <path fill="url(#id0)" fill-rule="nonzero" d="M125 1263l0 950 175 0 0 -1775 0 -138 938 0c0,0 178,-11 338,138 150,140 163,300 163,300 0,0 38,200 -63,363 -100,163 -282,233 -375,250 -138,25 -313,-38 -375,-100l-125 125 188 88c288,100 488,13 588,-37 336,-224 350,-410 362,-572l0 -3c0,-613 -500,-738 -625,-738l-863 0 -325 0c0,0 0,175 0,325l0 825z"/>
   <path fill="#15124B" fill-rule="nonzero" d="M2235 431l260 0 0 895 -260 0 0 -895zm315 417l31 0c28,0 48,-1 61,-3 14,-3 25,-8 33,-16 8,-7 13,-17 14,-30 3,-14 4,-34 4,-61 0,-27 -1,-47 -4,-60 -2,-14 -7,-25 -14,-33 -8,-7 -19,-11 -33,-13 -14,-3 -34,-4 -61,-4l-31 0 0 -199 108 0c64,0 116,7 156,20 41,12 72,31 92,57 20,24 33,55 40,92 7,36 10,83 10,139 0,54 -3,98 -10,134 -6,36 -19,65 -38,90 -22,28 -53,49 -94,64 -40,14 -92,21 -157,21l-108 0 0 -199zm562 -417l260 0 0 895 -260 0 0 -895zm367 590l-52 0 0 -199 44 0c27,0 47,-1 61,-3 14,-3 25,-7 33,-13 7,-6 12,-15 14,-27 3,-12 4,-30 4,-53 0,-23 -1,-41 -4,-53 -3,-13 -7,-23 -14,-29 -7,-6 -17,-10 -31,-12 -13,-2 -34,-3 -62,-3l-44 0 0 -199 134 0c62,0 111,6 150,18 38,12 68,31 88,56 19,23 32,52 38,87 7,35 10,79 10,134 0,70 -7,124 -20,163 -18,49 -50,83 -96,103l135 334 -273 0 -114 -304zm548 -590l260 0 0 895 -260 0 0 -895zm644 857c-11,-35 -21,-68 -30,-101l-42 -143c-14,-47 -25,-82 -33,-105 -7,-26 -13,-46 -17,-59l-133 -449 265 0 243 895 -243 0 -12 -38zm204 -359l131 -498 260 0 -133 449 -48 164c-16,50 -30,98 -43,143 -9,33 -19,67 -30,101l-12 38 -18 0 -108 -397zm718 101l-12 -26 -34 -66 -33 -69c-3,-6 -8,-15 -13,-27l-53 -111 -143 -300 265 0 282 601 0 294 -260 0 0 -295zm168 -322l121 -277 260 0 -101 211 -43 88 -82 170 -33 68 -122 -260zm609 -277l22 0 103 356 -150 538 -260 0 285 -895zm293 736l-217 0 55 -200 104 0 -153 -536 238 0 285 895 -265 0 -46 -159z"/>
   <path fill="#294BB5" fill-rule="nonzero" d="M2343 1932c-27,0 -50,-3 -70,-8 -20,-5 -39,-13 -59,-23l-6 -104 11 0 38 72c26,21 53,32 81,32 23,0 42,-6 56,-17 14,-12 21,-28 21,-49 0,-16 -4,-29 -11,-38 -7,-10 -18,-19 -33,-27 -15,-8 -35,-18 -59,-29 -29,-14 -52,-29 -68,-46 -16,-17 -24,-39 -24,-67 0,-16 4,-31 12,-46 8,-15 18,-28 31,-39 13,-11 28,-20 44,-27 17,-7 34,-10 51,-10 21,0 40,2 58,7 18,5 36,11 53,20l6 100 -11 0 -38 -69c-12,-9 -23,-16 -34,-21 -10,-5 -22,-7 -36,-7 -18,0 -32,6 -44,18 -11,12 -17,26 -17,44 0,19 6,34 19,46 13,11 33,24 63,38 25,12 46,23 63,34 16,11 28,24 36,38 8,14 12,32 12,53 0,20 -4,38 -13,53 -8,15 -20,28 -34,39 -14,10 -30,18 -48,24 -18,5 -35,8 -53,8zm432 0c-30,0 -59,-5 -84,-16 -26,-11 -48,-26 -68,-44 -19,-19 -34,-42 -45,-68 -10,-26 -16,-54 -16,-85 0,-31 5,-59 16,-85 11,-26 26,-48 45,-67 19,-19 42,-34 68,-44 26,-11 54,-16 84,-16 31,0 59,5 85,16 26,10 48,25 68,44 19,19 34,41 44,67 11,26 16,54 16,85 0,31 -5,59 -16,85 -10,26 -25,48 -44,68 -19,19 -42,34 -68,44 -26,10 -54,16 -85,16zm11 -32c23,0 44,-7 61,-20 18,-13 32,-32 42,-56 10,-24 15,-53 15,-86 0,-40 -6,-76 -19,-106 -12,-30 -29,-53 -50,-69 -21,-17 -44,-25 -70,-25 -23,0 -44,7 -62,20 -18,13 -32,31 -43,56 -10,24 -16,53 -16,86 0,40 6,76 19,106 13,30 29,53 51,70 22,17 45,25 71,25zm270 26l0 -10 53 -26 0 -341 -53 -26 0 -10 189 0 0 10 -59 26 0 343 144 0 48 -113 10 0 0 147 -332 0zm610 6c-34,0 -64,-6 -91,-18 -26,-12 -47,-30 -62,-56 -15,-26 -23,-60 -23,-103l0 -207 -53 -26 0 -10 183 0 0 10 -52 26 0 203c0,34 5,61 16,82 11,20 25,34 43,43 18,8 39,13 61,13 18,0 35,-4 51,-11 16,-8 29,-20 38,-37 10,-17 14,-40 14,-68l0 -226 -60 -24 0 -10 156 0 0 10 -52 25 0 208c0,43 -7,77 -22,103 -15,26 -35,45 -61,56 -26,12 -55,18 -89,18zm368 -6l0 -10 65 -26 0 -343 -94 0 -47 98 -10 0 0 -133 381 0 0 133 -10 0 -47 -98 -94 0 0 343 64 26 0 10 -208 0zm355 0l0 -10 52 -26 0 -341 -52 -26 0 -10 183 0 0 10 -52 26 0 341 52 26 0 10 -183 0zm467 6c-30,0 -59,-5 -84,-16 -26,-11 -48,-26 -68,-44 -19,-19 -34,-42 -45,-68 -10,-26 -16,-54 -16,-85 0,-31 5,-59 16,-85 11,-26 26,-48 45,-67 19,-19 42,-34 68,-44 26,-11 54,-16 84,-16 31,0 59,5 85,16 26,10 48,25 68,44 19,19 34,41 44,67 11,26 16,54 16,85 0,31 -5,59 -16,85 -10,26 -25,48 -44,68 -19,19 -42,34 -68,44 -26,10 -54,16 -85,16zm11 -32c23,0 44,-7 61,-20 18,-13 32,-32 42,-56 10,-24 15,-53 15,-86 0,-40 -6,-76 -19,-106 -12,-30 -29,-53 -50,-69 -21,-17 -44,-25 -70,-25 -23,0 -44,7 -62,20 -18,13 -32,31 -43,56 -10,24 -16,53 -16,86 0,40 6,76 19,106 13,30 29,53 51,70 22,17 45,25 71,25zm268 26l0 -10 52 -26 0 -341 -51 -26 0 -10 108 0 241 285 0 -251 -68 -24 0 -10 163 0 0 10 -51 25 0 381 -33 0 -265 -311 0 273 68 25 0 10 -164 0z"/>
   <path fill="#294BB5" fill-rule="nonzero" d="M5834 1925l0 -10 53 -26 0 -341 -53 -26 0 -10 189 0 0 10 -59 26 0 343 144 0 48 -113 10 0 0 147 -332 0zm397 0l0 -10 53 -26 0 -341 -53 -26 0 -10 189 0 0 10 -59 26 0 343 144 0 48 -113 10 0 0 147 -332 0zm397 0l0 -10 53 -26 0 -341 -53 -26 0 -10 194 0c49,0 89,9 118,27 30,18 45,46 45,84 0,23 -8,44 -24,62 -15,18 -37,31 -64,41 -27,10 -57,15 -91,15l-49 0 0 148 61 26 0 10 -192 0zm131 -378l0 163 40 0c33,0 59,-8 78,-23 19,-15 28,-35 28,-58 0,-29 -10,-50 -29,-63 -19,-13 -46,-19 -81,-19l-36 0z"/>
   <path fill="url(#id1)" fill-rule="nonzero" d="M1225 650l-425 425 0 -150 -213 0 0 825 213 0 0 -363 150 -163 375 -375c88,-75 83,-121 75,-138 -50,-113 -138,-100 -175,-63z"/>
   <path fill="url(#id2)" fill-rule="nonzero" d="M450 2375c0,124 -101,225 -225,225 -124,0 -225,-101 -225,-225 0,-124 101,-225 225,-225 124,0 225,101 225,225z"/>
   <path fill="url(#id3)" fill-rule="nonzero" d="M450 225c0,124 -101,225 -225,225 -124,0 -225,-101 -225,-225 0,-124 101,-225 225,-225 124,0 225,101 225,225z"/>
   <path fill="url(#id4)" fill-rule="nonzero" d="M850 1838c0,90 -73,163 -163,163 -90,0 -163,-73 -163,-163 0,-90 73,-163 163,-163 90,0 163,73 163,163z"/>
   <path fill="url(#id5)" fill-rule="nonzero" d="M850 813c0,90 -73,163 -163,163 -90,0 -163,-73 -163,-163 0,-90 73,-163 163,-163 90,0 163,73 163,163z"/>
  </g>
 </g>
</svg>
